solid Mesh
  facet normal 0 0 -1
    outer loop
      vertex 0.984252 0.984252 0
      vertex 0.984252 0 0
      vertex 0 0.984252 0
    endloop
  endfacet
  facet normal 0 0 -1
    outer loop
      vertex 0.984252 0 0
      vertex 0 0 0
      vertex 0 0.984252 0
    endloop
  endfacet
  facet normal 0 0 1
    outer loop
      vertex 0.984252 0 0.984252
      vertex 0.984252 0.984252 0.984252
      vertex 0 0 0.984252
    endloop
  endfacet
  facet normal 0 0 1
    outer loop
      vertex 0.984252 0.984252 0.984252
      vertex 0 0.984252 0.984252
      vertex 0 0 0.984252
    endloop
  endfacet
  facet normal 0 1 0
    outer loop
      vertex 0 0.984252 0.984252
      vertex 0.984252 0.984252 0.984252
      vertex 0 0.984252 0
    endloop
  endfacet
  facet normal 0 1 0
    outer loop
      vertex 0.984252 0.984252 0.984252
      vertex 0.984252 0.984252 0
      vertex 0 0.984252 0
    endloop
  endfacet
  facet normal 1 0 0
    outer loop
      vertex 0.984252 0.984252 0.984252
      vertex 0.984252 0 0.984252
      vertex 0.984252 0.984252 0
    endloop
  endfacet
  facet normal 1 0 0
    outer loop
      vertex 0.984252 0 0.984252
      vertex 0.984252 0 0
      vertex 0.984252 0.984252 0
    endloop
  endfacet
  facet normal 0 -1 0
    outer loop
      vertex 0.984252 0 0.984252
      vertex 0 0 0.984252
      vertex 0.984252 0 0
    endloop
  endfacet
  facet normal 0 -1 0
    outer loop
      vertex 0 0 0.984252
      vertex 0 0 0
      vertex 0.984252 0 0
    endloop
  endfacet
  facet normal -1 0 0
    outer loop
      vertex 0 0 0.984252
      vertex 0 0.984252 0.984252
      vertex 0 0 0
    endloop
  endfacet
  facet normal -1 0 0
    outer loop
      vertex 0 0.984252 0.984252
      vertex 0 0.984252 0
      vertex 0 0 0
    endloop
  endfacet
endsolid Mesh
